<mxfile host="app.diagrams.net" modified="2024-04-27T02:36:28.341Z" agent="Mozilla/5.0 (Windows NT 10.0; Win64; x64) AppleWebKit/537.36 (KHTML, like Gecko) Chrome/124.0.0.0 Safari/537.36 Edg/124.0.0.0" etag="-BnHTA5iMupynr20_3gO" version="24.3.1" type="device">
  <diagram name="App Entities" id="qgVDM3pQbXPa-TAs7Vcz">
    <mxGraphModel dx="1042" dy="569" grid="1" gridSize="10" guides="1" tooltips="1" connect="1" arrows="1" fold="1" page="1" pageScale="1" pageWidth="850" pageHeight="1100" math="0" shadow="0">
      <root>
        <mxCell id="0" />
        <mxCell id="1" parent="0" />
        <mxCell id="M5eP5oGOthX69d1q8iFv-1" value="Customer" style="swimlane;childLayout=stackLayout;horizontal=1;startSize=50;horizontalStack=0;rounded=1;fontSize=14;fontStyle=0;strokeWidth=2;resizeParent=0;resizeLast=1;shadow=0;dashed=0;align=center;arcSize=4;whiteSpace=wrap;html=1;" parent="1" vertex="1">
          <mxGeometry x="80" y="40" width="240" height="160" as="geometry" />
        </mxCell>
        <mxCell id="M5eP5oGOthX69d1q8iFv-2" value="Id : string&lt;div&gt;IsActive: bool&lt;br&gt;&lt;div&gt;IdentityId : string(450)&lt;/div&gt;&lt;div&gt;FirstName : string(256)&lt;/div&gt;&lt;div&gt;LastName : string(256)&lt;/div&gt;&lt;div&gt;Email : string(256)&lt;/div&gt;&lt;/div&gt;" style="align=left;strokeColor=none;fillColor=none;spacingLeft=4;fontSize=12;verticalAlign=top;resizable=0;rotatable=0;part=1;html=1;" parent="M5eP5oGOthX69d1q8iFv-1" vertex="1">
          <mxGeometry y="50" width="240" height="110" as="geometry" />
        </mxCell>
        <mxCell id="NtCyVesoyvdXPDQzMngX-2" value="CustomerShippingAddress" style="swimlane;childLayout=stackLayout;horizontal=1;startSize=50;horizontalStack=0;rounded=1;fontSize=14;fontStyle=0;strokeWidth=2;resizeParent=0;resizeLast=1;shadow=0;dashed=0;align=center;arcSize=4;whiteSpace=wrap;html=1;" parent="1" vertex="1">
          <mxGeometry x="80" y="280" width="240" height="280" as="geometry" />
        </mxCell>
        <mxCell id="NtCyVesoyvdXPDQzMngX-3" value="Id : string&lt;div&gt;IsActive: bool&lt;/div&gt;&lt;div&gt;CustomerId : string(450)&lt;/div&gt;&lt;div&gt;&lt;div&gt;IsDefault : bool&lt;/div&gt;&lt;div&gt;FirstName : string(256)&lt;/div&gt;&lt;div&gt;LastName : string(256)&lt;/div&gt;&lt;div&gt;Address : string(200)&lt;/div&gt;&lt;/div&gt;&lt;div&gt;City : string(100)&lt;/div&gt;&lt;div&gt;State : string(100)&lt;/div&gt;&lt;div&gt;Country : string(100)&lt;/div&gt;&lt;div&gt;ZipCode : string(18)&lt;/div&gt;&lt;div&gt;PhoneCountryCode : string(10)&lt;/div&gt;&lt;div&gt;PhoneNumber : string(16)&lt;/div&gt;&lt;div&gt;PhoneExtension : string(10) NULL&lt;/div&gt;" style="align=left;strokeColor=none;fillColor=none;spacingLeft=4;fontSize=12;verticalAlign=top;resizable=0;rotatable=0;part=1;html=1;" parent="NtCyVesoyvdXPDQzMngX-2" vertex="1">
          <mxGeometry y="50" width="240" height="230" as="geometry" />
        </mxCell>
        <mxCell id="NtCyVesoyvdXPDQzMngX-4" value="PaymentMethod" style="swimlane;childLayout=stackLayout;horizontal=1;startSize=50;horizontalStack=0;rounded=1;fontSize=14;fontStyle=0;strokeWidth=2;resizeParent=0;resizeLast=1;shadow=0;dashed=0;align=center;arcSize=4;whiteSpace=wrap;html=1;" parent="1" vertex="1">
          <mxGeometry x="400" y="40" width="240" height="160" as="geometry" />
        </mxCell>
        <mxCell id="NtCyVesoyvdXPDQzMngX-5" value="Id : string&lt;div&gt;IsActive: bool&lt;br&gt;&lt;div&gt;CustomerId : string(450)&lt;/div&gt;&lt;/div&gt;&lt;div&gt;Alias : string(100)&lt;/div&gt;&lt;div&gt;CardId : string(450)&lt;/div&gt;&lt;div&gt;LastCardNumbers : string(4)&lt;/div&gt;" style="align=left;strokeColor=none;fillColor=none;spacingLeft=4;fontSize=12;verticalAlign=top;resizable=0;rotatable=0;part=1;html=1;" parent="NtCyVesoyvdXPDQzMngX-4" vertex="1">
          <mxGeometry y="50" width="240" height="110" as="geometry" />
        </mxCell>
        <mxCell id="NtCyVesoyvdXPDQzMngX-12" value="" style="edgeStyle=entityRelationEdgeStyle;fontSize=12;html=1;endArrow=ERzeroToMany;startArrow=ERmandOne;rounded=0;exitX=1;exitY=0.75;exitDx=0;exitDy=0;entryX=1;entryY=0.25;entryDx=0;entryDy=0;" parent="1" source="M5eP5oGOthX69d1q8iFv-2" target="NtCyVesoyvdXPDQzMngX-3" edge="1">
          <mxGeometry width="100" height="100" relative="1" as="geometry">
            <mxPoint x="340" y="300" as="sourcePoint" />
            <mxPoint x="440" y="200" as="targetPoint" />
          </mxGeometry>
        </mxCell>
        <mxCell id="NtCyVesoyvdXPDQzMngX-13" value="" style="edgeStyle=entityRelationEdgeStyle;fontSize=12;html=1;endArrow=ERzeroToMany;startArrow=ERmandOne;rounded=0;exitX=1;exitY=0.25;exitDx=0;exitDy=0;entryX=0;entryY=0.25;entryDx=0;entryDy=0;" parent="1" source="M5eP5oGOthX69d1q8iFv-2" target="NtCyVesoyvdXPDQzMngX-5" edge="1">
          <mxGeometry width="100" height="100" relative="1" as="geometry">
            <mxPoint x="340" y="300" as="sourcePoint" />
            <mxPoint x="440" y="200" as="targetPoint" />
          </mxGeometry>
        </mxCell>
        <mxCell id="NtCyVesoyvdXPDQzMngX-14" value="Basket" style="swimlane;childLayout=stackLayout;horizontal=1;startSize=50;horizontalStack=0;rounded=1;fontSize=14;fontStyle=0;strokeWidth=2;resizeParent=0;resizeLast=1;shadow=0;dashed=0;align=center;arcSize=4;whiteSpace=wrap;html=1;" parent="1" vertex="1">
          <mxGeometry x="800" y="40" width="240" height="160" as="geometry" />
        </mxCell>
        <mxCell id="NtCyVesoyvdXPDQzMngX-15" value="Id : string&lt;div&gt;IsActive: bool&lt;br&gt;&lt;div&gt;CustomerId : string(450)&lt;/div&gt;&lt;/div&gt;&lt;div&gt;PaymentIntentId : string(450)&lt;/div&gt;&lt;div&gt;ClientSecret : string(450)&lt;/div&gt;" style="align=left;strokeColor=none;fillColor=none;spacingLeft=4;fontSize=12;verticalAlign=top;resizable=0;rotatable=0;part=1;html=1;" parent="NtCyVesoyvdXPDQzMngX-14" vertex="1">
          <mxGeometry y="50" width="240" height="110" as="geometry" />
        </mxCell>
        <mxCell id="NtCyVesoyvdXPDQzMngX-17" value="BasketItem" style="swimlane;childLayout=stackLayout;horizontal=1;startSize=50;horizontalStack=0;rounded=1;fontSize=14;fontStyle=0;strokeWidth=2;resizeParent=0;resizeLast=1;shadow=0;dashed=0;align=center;arcSize=4;whiteSpace=wrap;html=1;" parent="1" vertex="1">
          <mxGeometry x="800" y="280" width="240" height="160" as="geometry" />
        </mxCell>
        <mxCell id="NtCyVesoyvdXPDQzMngX-18" value="Id : string&lt;div&gt;IsActive: bool&lt;br&gt;&lt;div&gt;BasketId : string(450)&lt;/div&gt;&lt;/div&gt;&lt;div&gt;ProductId : string(450)&lt;/div&gt;&lt;div&gt;Price : decimal(18, 2)&lt;/div&gt;&lt;div&gt;Quantity : int&lt;/div&gt;" style="align=left;strokeColor=none;fillColor=none;spacingLeft=4;fontSize=12;verticalAlign=top;resizable=0;rotatable=0;part=1;html=1;" parent="NtCyVesoyvdXPDQzMngX-17" vertex="1">
          <mxGeometry y="50" width="240" height="110" as="geometry" />
        </mxCell>
        <mxCell id="NtCyVesoyvdXPDQzMngX-21" value="" style="edgeStyle=entityRelationEdgeStyle;fontSize=12;html=1;endArrow=ERzeroToMany;startArrow=ERmandOne;rounded=0;entryX=1;entryY=0.25;entryDx=0;entryDy=0;exitX=1;exitY=0.25;exitDx=0;exitDy=0;" parent="1" source="NtCyVesoyvdXPDQzMngX-15" target="NtCyVesoyvdXPDQzMngX-18" edge="1">
          <mxGeometry width="100" height="100" relative="1" as="geometry">
            <mxPoint x="940" y="300" as="sourcePoint" />
            <mxPoint x="1040" y="200" as="targetPoint" />
          </mxGeometry>
        </mxCell>
        <mxCell id="NtCyVesoyvdXPDQzMngX-22" value="Order" style="swimlane;childLayout=stackLayout;horizontal=1;startSize=50;horizontalStack=0;rounded=1;fontSize=14;fontStyle=0;strokeWidth=2;resizeParent=0;resizeLast=1;shadow=0;dashed=0;align=center;arcSize=4;whiteSpace=wrap;html=1;" parent="1" vertex="1">
          <mxGeometry x="80" y="640" width="240" height="320" as="geometry" />
        </mxCell>
        <mxCell id="NtCyVesoyvdXPDQzMngX-23" value="Id : string&lt;div&gt;IsActive: bool&lt;/div&gt;&lt;div&gt;CustomerId : string(450)&lt;/div&gt;&lt;div&gt;OrderDate : Date&lt;/div&gt;&lt;div&gt;OrderStatus : OrderStatus&lt;/div&gt;&lt;div&gt;&lt;div&gt;SubTotal : decimal(18, 2)&lt;/div&gt;&lt;div&gt;DeliveryFee : decimal(18, 2)&lt;/div&gt;&lt;div&gt;PaymentIntentId : string(450)&lt;/div&gt;&lt;div&gt;FirstName : string(256)&lt;/div&gt;&lt;div&gt;LastName : string(256)&lt;/div&gt;&lt;div&gt;Address : string(200)&lt;/div&gt;&lt;/div&gt;&lt;div&gt;City : string(100)&lt;/div&gt;&lt;div&gt;State : string(100)&lt;/div&gt;&lt;div&gt;Country : string(100)&lt;/div&gt;&lt;div&gt;ZipCode : string(18)&lt;/div&gt;&lt;div&gt;PhoneCountryCode : string(10)&lt;/div&gt;&lt;div&gt;PhoneNumber : string(16)&lt;/div&gt;&lt;div&gt;PhoneExtension : string(10) NULL&lt;/div&gt;" style="align=left;strokeColor=none;fillColor=none;spacingLeft=4;fontSize=12;verticalAlign=top;resizable=0;rotatable=0;part=1;html=1;" parent="NtCyVesoyvdXPDQzMngX-22" vertex="1">
          <mxGeometry y="50" width="240" height="270" as="geometry" />
        </mxCell>
        <mxCell id="NtCyVesoyvdXPDQzMngX-24" value="OrderItem" style="swimlane;childLayout=stackLayout;horizontal=1;startSize=50;horizontalStack=0;rounded=1;fontSize=14;fontStyle=0;strokeWidth=2;resizeParent=0;resizeLast=1;shadow=0;dashed=0;align=center;arcSize=4;whiteSpace=wrap;html=1;" parent="1" vertex="1">
          <mxGeometry x="400" y="640" width="240" height="200" as="geometry" />
        </mxCell>
        <mxCell id="NtCyVesoyvdXPDQzMngX-25" value="Id : string&lt;div&gt;IsActive: bool&lt;/div&gt;&lt;div&gt;OrderId : string(450)&lt;/div&gt;&lt;div&gt;Price : decimal(18, 2)&lt;/div&gt;&lt;div&gt;Quantity : int&lt;/div&gt;&lt;div&gt;ProductId : string(450)&lt;/div&gt;&lt;div&gt;Name : string(200)&lt;/div&gt;&lt;div&gt;PictureUri : string(255)&lt;/div&gt;" style="align=left;strokeColor=none;fillColor=none;spacingLeft=4;fontSize=12;verticalAlign=top;resizable=0;rotatable=0;part=1;html=1;" parent="NtCyVesoyvdXPDQzMngX-24" vertex="1">
          <mxGeometry y="50" width="240" height="150" as="geometry" />
        </mxCell>
        <mxCell id="NtCyVesoyvdXPDQzMngX-26" value="" style="edgeStyle=entityRelationEdgeStyle;fontSize=12;html=1;endArrow=ERzeroToMany;startArrow=ERmandOne;rounded=0;exitX=1;exitY=0.25;exitDx=0;exitDy=0;" parent="1" source="NtCyVesoyvdXPDQzMngX-23" edge="1">
          <mxGeometry width="100" height="100" relative="1" as="geometry">
            <mxPoint x="340" y="810" as="sourcePoint" />
            <mxPoint x="400" y="728" as="targetPoint" />
          </mxGeometry>
        </mxCell>
        <mxCell id="NtCyVesoyvdXPDQzMngX-27" value="Product" style="swimlane;childLayout=stackLayout;horizontal=1;startSize=50;horizontalStack=0;rounded=1;fontSize=14;fontStyle=0;strokeWidth=2;resizeParent=0;resizeLast=1;shadow=0;dashed=0;align=center;arcSize=4;whiteSpace=wrap;html=1;" parent="1" vertex="1">
          <mxGeometry x="800" y="640" width="240" height="240" as="geometry" />
        </mxCell>
        <mxCell id="NtCyVesoyvdXPDQzMngX-28" value="Id : string&lt;div&gt;IsActive: bool&lt;/div&gt;&lt;div&gt;CategoryId : string(450)&lt;/div&gt;&lt;div&gt;BrandId : string(450)&lt;/div&gt;&lt;div&gt;Name : string(250)&lt;/div&gt;&lt;div&gt;Description : string(3000)&lt;/div&gt;&lt;div&gt;SKU : string(100)&lt;/div&gt;&lt;div&gt;Price : decimal(18, 2)&lt;/div&gt;&lt;div&gt;PictureUri : string(18, 2)&lt;/div&gt;&lt;div&gt;QuantityInStock : int&lt;/div&gt;" style="align=left;strokeColor=none;fillColor=none;spacingLeft=4;fontSize=12;verticalAlign=top;resizable=0;rotatable=0;part=1;html=1;" parent="NtCyVesoyvdXPDQzMngX-27" vertex="1">
          <mxGeometry y="50" width="240" height="190" as="geometry" />
        </mxCell>
        <mxCell id="NtCyVesoyvdXPDQzMngX-29" value="Category" style="swimlane;childLayout=stackLayout;horizontal=1;startSize=50;horizontalStack=0;rounded=1;fontSize=14;fontStyle=0;strokeWidth=2;resizeParent=0;resizeLast=1;shadow=0;dashed=0;align=center;arcSize=4;whiteSpace=wrap;html=1;" parent="1" vertex="1">
          <mxGeometry x="1120" y="790" width="240" height="200" as="geometry" />
        </mxCell>
        <mxCell id="NtCyVesoyvdXPDQzMngX-30" value="Id : string&lt;div&gt;IsActive: bool&lt;/div&gt;&lt;div&gt;Name : string(200)&lt;br&gt;&lt;/div&gt;&lt;div&gt;Description : string(500)&lt;/div&gt;&lt;div&gt;Code : string(100)&lt;br&gt;&lt;/div&gt;" style="align=left;strokeColor=none;fillColor=none;spacingLeft=4;fontSize=12;verticalAlign=top;resizable=0;rotatable=0;part=1;html=1;" parent="NtCyVesoyvdXPDQzMngX-29" vertex="1">
          <mxGeometry y="50" width="240" height="150" as="geometry" />
        </mxCell>
        <mxCell id="NtCyVesoyvdXPDQzMngX-31" value="Brand" style="swimlane;childLayout=stackLayout;horizontal=1;startSize=50;horizontalStack=0;rounded=1;fontSize=14;fontStyle=0;strokeWidth=2;resizeParent=0;resizeLast=1;shadow=0;dashed=0;align=center;arcSize=4;whiteSpace=wrap;html=1;" parent="1" vertex="1">
          <mxGeometry x="1120" y="520" width="240" height="200" as="geometry" />
        </mxCell>
        <mxCell id="NtCyVesoyvdXPDQzMngX-32" value="Id : string&lt;div&gt;IsActive: bool&lt;/div&gt;&lt;div&gt;Name : string(200)&lt;br&gt;&lt;/div&gt;&lt;div&gt;Code : string(100)&lt;br&gt;&lt;/div&gt;" style="align=left;strokeColor=none;fillColor=none;spacingLeft=4;fontSize=12;verticalAlign=top;resizable=0;rotatable=0;part=1;html=1;" parent="NtCyVesoyvdXPDQzMngX-31" vertex="1">
          <mxGeometry y="50" width="240" height="150" as="geometry" />
        </mxCell>
        <mxCell id="NtCyVesoyvdXPDQzMngX-33" value="" style="edgeStyle=entityRelationEdgeStyle;fontSize=12;html=1;endArrow=ERzeroToMany;startArrow=ERmandOne;rounded=0;entryX=1;entryY=0.25;entryDx=0;entryDy=0;exitX=0;exitY=0.5;exitDx=0;exitDy=0;" parent="1" source="NtCyVesoyvdXPDQzMngX-32" target="NtCyVesoyvdXPDQzMngX-28" edge="1">
          <mxGeometry width="100" height="100" relative="1" as="geometry">
            <mxPoint x="1050" y="720" as="sourcePoint" />
            <mxPoint x="1150" y="620" as="targetPoint" />
          </mxGeometry>
        </mxCell>
        <mxCell id="NtCyVesoyvdXPDQzMngX-34" value="" style="edgeStyle=entityRelationEdgeStyle;fontSize=12;html=1;endArrow=ERzeroToMany;startArrow=ERmandOne;rounded=0;entryX=1;entryY=0.5;entryDx=0;entryDy=0;exitX=0;exitY=0.25;exitDx=0;exitDy=0;" parent="1" source="NtCyVesoyvdXPDQzMngX-30" target="NtCyVesoyvdXPDQzMngX-28" edge="1">
          <mxGeometry width="100" height="100" relative="1" as="geometry">
            <mxPoint x="1050" y="720" as="sourcePoint" />
            <mxPoint x="1150" y="620" as="targetPoint" />
          </mxGeometry>
        </mxCell>
      </root>
    </mxGraphModel>
  </diagram>
</mxfile>
